<?xml version="1.0" ?><!DOCTYPE svg  PUBLIC '-//W3C//DTD SVG 1.1//EN'  'http://www.w3.org/Graphics/SVG/1.1/DTD/svg11.dtd'><svg enable-background="new 0 0 32 32" height="32px" id="Слой_1" version="1.1" viewBox="0 0 32 32" width="32px" xml:space="preserve" xmlns="http://www.w3.org/2000/svg" xmlns:xlink="http://www.w3.org/1999/xlink"><path clip-rule="evenodd" d="M512.001 771.257c43.284-0.21 78.372 34.879 78.372 78.372 0 43.284-35.088 78.372-78.372 78.372s-78.372-35.088-78.372-78.372c0-43.284 35.088-78.372 78.372-78.372zM590.582 753.608h-157.164c-59.252 0-97.912-52.108-97.912-101.695v-238.687c0-46.225 65.135-46.225 65.135 0v220.618h12.606v-600.079c0-63.873 88.247-61.772 90.348 0v345.844h16.81v-346.054c3.572-65.555 90.348-59.252 90.348 0.21v600.079h10.505v-220.618c0-46.225 67.236-46.225 67.236 0v238.687c0 49.377-38.87 101.695-97.912 101.695z" fill="#121313" fill-rule="evenodd" id="Arrow_Back"/><g/><g/><g/><g/><g/><g/></svg>